# Blender 4.5.0
# www.blender.org
o thorn
v 0.000000 0.030543 0.039742
v -0.037796 0.030543 0.012281
v -0.023359 0.030543 -0.032152
v 0.023359 0.030543 -0.032152
v 0.037796 0.030543 0.012281
v 0.000000 0.170761 0.000000
vn -0.5729 0.2235 0.7886
vn -0.9270 0.2235 -0.3012
vn -0.0000 0.2235 -0.9747
vn -0.0000 -1.0000 -0.0000
vn 0.9270 0.2235 -0.3012
vn 0.5729 0.2235 0.7886
vt 0.250000 0.490000
vt 0.250000 0.250000
vt 0.478254 0.324164
vt 0.391068 0.055836
vt 0.108932 0.055836
vt 0.750000 0.490000
vt 0.978254 0.324164
vt 0.891068 0.055836
vt 0.608932 0.055836
vt 0.521746 0.324164
vt 0.021746 0.324164
s 0
f 1/1/1 6/2/1 2/3/1
f 2/3/2 6/2/2 3/4/2
f 3/4/3 6/2/3 4/5/3
f 1/6/4 2/7/4 3/8/4 4/9/4 5/10/4
f 4/5/5 6/2/5 5/11/5
f 5/11/6 6/2/6 1/1/6
